<svg xmlns="http://www.w3.org/2000/svg" width="66" height="66" viewBox="0 0 66 66">
  <g id="Group_567" data-name="Group 567" transform="translate(-607 -6582)">
    <circle id="Ellipse_297" data-name="Ellipse 297" cx="33" cy="33" r="33" transform="translate(607 6582)" fill="#f4855f"/>
    <path id="Icon_awesome-tools" data-name="Icon awesome-tools" d="M32.422,25.6l-7.577-7.577a4.8,4.8,0,0,0-5.526-.9l-6.9-6.9V6.211L4.141,0,0,4.141l6.211,8.282h4.018l6.9,6.9a4.815,4.815,0,0,0,.9,5.526L25.6,32.422a2.406,2.406,0,0,0,3.41,0l3.41-3.41a2.417,2.417,0,0,0,0-3.41ZM21.462,14.558a6.807,6.807,0,0,1,4.846,2.006l1.255,1.255A9.159,9.159,0,0,0,30.4,15.91a9.305,9.305,0,0,0,2.452-8.845.774.774,0,0,0-1.3-.356l-4.814,4.814-4.393-.731L21.61,6.4l4.814-4.814A.781.781,0,0,0,26.055.278,9.32,9.32,0,0,0,17.217,2.73a9.169,9.169,0,0,0-2.666,6.7l5.312,5.312a7.049,7.049,0,0,1,1.6-.188Zm-6.723,5.306L11.07,16.2,1.21,26.062a4.141,4.141,0,0,0,5.856,5.856l8-8a6.948,6.948,0,0,1-.324-4.057ZM4.141,30.54a1.553,1.553,0,1,1,1.553-1.553A1.557,1.557,0,0,1,4.141,30.54Z" transform="translate(623.438 6598.435)" fill="#fff"/>
  </g>
</svg>
