<svg xmlns="http://www.w3.org/2000/svg" width="28.145" height="28.144" viewBox="0 0 28.145 28.144">
  <path id="Icon_awesome-linkedin-in" data-name="Icon awesome-linkedin-in" d="M6.3,28.145H.465V9.354H6.3ZM3.379,6.791A3.4,3.4,0,1,1,6.758,3.38,3.408,3.408,0,0,1,3.379,6.791ZM28.138,28.145H22.316V19c0-2.18-.044-4.976-3.034-4.976-3.034,0-3.5,2.368-3.5,4.819v9.3H9.955V9.354h5.6v2.563h.082a6.131,6.131,0,0,1,5.521-3.034c5.905,0,6.991,3.889,6.991,8.94V28.145Z" transform="translate(0 0)" fill="#fff"/>
</svg>
