<svg xmlns="http://www.w3.org/2000/svg" width="26.508" height="21.033" viewBox="0 0 26.508 21.033">
  <path id="Icon_awesome-medium-m" data-name="Icon awesome-medium-m" d="M4.139,8.791A1.035,1.035,0,0,0,3.8,7.925L1.333,4.944V4.5H9.016l5.941,13.026L20.179,4.5h7.327v.444L25.391,6.972a.617.617,0,0,0-.236.592V22.47a.617.617,0,0,0,.236.592l2.066,2.028v.444h-10.4v-.444L19.2,23.012c.208-.208.208-.274.208-.592V10.375l-5.957,15.12h-.806L5.722,10.375V20.508a1.38,1.38,0,0,0,.384,1.162L8.89,25.045v.444H1v-.438l2.784-3.381a1.335,1.335,0,0,0,.356-1.162Z" transform="translate(-0.998 -4.5)" fill="#fff"/>
</svg>
