<svg xmlns="http://www.w3.org/2000/svg" width="24.427" height="24.421" viewBox="0 0 24.427 24.421">
  <path id="Icon_awesome-instagram" data-name="Icon awesome-instagram" d="M12.211,8.187a6.261,6.261,0,1,0,6.261,6.261A6.251,6.251,0,0,0,12.211,8.187Zm0,10.332a4.071,4.071,0,1,1,4.071-4.071,4.078,4.078,0,0,1-4.071,4.071ZM20.189,7.931a1.46,1.46,0,1,1-1.46-1.46A1.457,1.457,0,0,1,20.189,7.931Zm4.147,1.482A7.227,7.227,0,0,0,22.363,4.3a7.275,7.275,0,0,0-5.117-1.973c-2.016-.114-8.06-.114-10.076,0A7.264,7.264,0,0,0,2.053,4.291,7.251,7.251,0,0,0,.081,9.408c-.114,2.016-.114,8.06,0,10.076A7.227,7.227,0,0,0,2.053,24.6,7.284,7.284,0,0,0,7.17,26.573c2.016.114,8.06.114,10.076,0A7.227,7.227,0,0,0,22.363,24.6a7.275,7.275,0,0,0,1.973-5.117c.114-2.016.114-8.054,0-10.071Zm-2.6,12.234a4.121,4.121,0,0,1-2.321,2.321c-1.608.638-5.422.49-7.2.49s-5.6.142-7.2-.49a4.121,4.121,0,0,1-2.321-2.321c-.638-1.608-.49-5.422-.49-7.2s-.142-5.6.49-7.2A4.121,4.121,0,0,1,5.012,4.928c1.608-.638,5.422-.49,7.2-.49s5.6-.142,7.2.49A4.121,4.121,0,0,1,21.731,7.25c.638,1.608.49,5.422.49,7.2S22.369,20.045,21.731,21.647Z" transform="translate(0.005 -2.238)" fill="#fff"/>
</svg>
