<svg xmlns="http://www.w3.org/2000/svg" width="29.913" height="21.033" viewBox="0 0 29.913 21.033">
  <path id="Icon_awesome-youtube" data-name="Icon awesome-youtube" d="M30.338,7.791a3.759,3.759,0,0,0-2.645-2.662C25.361,4.5,16.007,4.5,16.007,4.5s-9.354,0-11.687.629A3.759,3.759,0,0,0,1.675,7.791a39.43,39.43,0,0,0-.625,7.247,39.43,39.43,0,0,0,.625,7.247A3.7,3.7,0,0,0,4.32,24.9c2.333.629,11.687.629,11.687.629s9.354,0,11.687-.629a3.7,3.7,0,0,0,2.645-2.619,39.43,39.43,0,0,0,.625-7.247,39.43,39.43,0,0,0-.625-7.247ZM12.947,19.485v-8.9l7.818,4.448Z" transform="translate(-1.05 -4.5)" fill="#fff"/>
</svg>
