<svg xmlns="http://www.w3.org/2000/svg" viewBox="0 0 355.73 74.46"><defs><style>.cls-1{isolation:isolate;}.cls-2{fill:#170a07;}.cls-3{fill:#1ae390;}.cls-4{fill:#fff;}</style></defs><g id="Layer_2" data-name="Layer 2"><g id="Layer_1-2" data-name="Layer 1"><g id="Group_590" data-name="Group 590"><g id="dongari" class="cls-1"><g class="cls-1"><path class="cls-2" d="M137.78,13.8V61.16h-9.51V57.21c-2.49,3-6.12,4.46-10.72,4.46-9.7,0-17.17-6.89-17.17-17.68s7.47-17.68,17.17-17.68c4.21,0,7.79,1.34,10.28,4.15V13.8ZM128,44c0-5.93-3.83-9.51-8.74-9.51s-8.81,3.58-8.81,9.51,3.83,9.51,8.81,9.51S128,49.93,128,44Z"/><path class="cls-2" d="M144.42,44c0-10.34,8-17.68,18.89-17.68S182.14,33.65,182.14,44s-7.91,17.68-18.83,17.68S144.42,54.33,144.42,44Zm27.64,0c0-5.93-3.77-9.51-8.75-9.51S154.5,38.06,154.5,44s3.83,9.51,8.81,9.51S172.06,49.93,172.06,44Z"/><path class="cls-2" d="M223.88,41.5V61.16h-10V43c0-5.56-2.55-8.11-6.95-8.11-4.79,0-8.24,2.94-8.24,9.26v17h-9.95V26.82h9.5v4a15.06,15.06,0,0,1,11.37-4.54C217.75,26.31,223.88,31,223.88,41.5Z"/><path class="cls-2" d="M268.68,26.82v28.6c0,12.76-6.89,18.64-19.27,18.64-6.51,0-12.83-1.6-16.85-4.73l3.95-7.15a20.5,20.5,0,0,0,12.13,3.9c7,0,10.09-3.19,10.09-9.38V55.23c-2.62,2.87-6.39,4.27-10.86,4.27-9.51,0-17.17-6.57-17.17-16.59s7.66-16.6,17.17-16.6c4.79,0,8.75,1.6,11.37,4.92V26.82Zm-9.83,16.09c0-5-3.76-8.43-9-8.43s-9.06,3.39-9.06,8.43,3.83,8.42,9.06,8.42S258.85,48,258.85,42.91Z"/><path class="cls-2" d="M308.32,41.57V61.16H299V56.89c-1.85,3.12-5.43,4.78-10.47,4.78-8,0-12.83-4.46-12.83-10.4S280,41,290.44,41h7.92c0-4.27-2.55-6.76-7.92-6.76a16.51,16.51,0,0,0-9.89,3.19l-3.57-7c3.76-2.68,9.32-4.15,14.8-4.15C302.25,26.31,308.32,31.16,308.32,41.57Zm-10,8.74V46.8h-6.83c-4.66,0-6.13,1.73-6.13,4,0,2.49,2.11,4.15,5.62,4.15C294.34,55,297.21,53.44,298.36,50.31Z"/><path class="cls-2" d="M338.63,26.31V35.5c-.83-.06-1.47-.12-2.23-.12-5.49,0-9.13,3-9.13,9.57V61.16h-10V26.82h9.51v4.54C329.25,28,333.33,26.31,338.63,26.31Z"/><path class="cls-2" d="M343.35,16.48c0-3.12,2.49-5.55,6.19-5.55s6.19,2.3,6.19,5.36c0,3.32-2.49,5.75-6.19,5.75S343.35,19.61,343.35,16.48Zm1.21,10.34h10V61.16h-10Z"/></g></g><rect id="Rectangle_166" data-name="Rectangle 166" class="cls-3" width="74.46" height="74.46" rx="15.96"/><circle id="Ellipse_72" data-name="Ellipse 72" class="cls-4" cx="21.27" cy="24.93" r="10.64"/><path id="Rectangle_167" data-name="Rectangle 167" class="cls-4" d="M16,43.55H58.5a8,8,0,0,1,8,8h0a8,8,0,0,1-8,8H16a8,8,0,0,1-8-8H8A8,8,0,0,1,16,43.55Z"/></g></g></g></svg>