<svg width="1440" height="672" viewBox="0 0 1440 672" fill="none" xmlns="http://www.w3.org/2000/svg">
<mask id="mask0" mask-type="alpha" maskUnits="userSpaceOnUse" x="0" y="0" width="1440" height="672">
<rect width="1440" height="672" fill="white"/>
</mask>
<g mask="url(#mask0)">
<path d="M1110.42 179.594L1275.44 456.22L981.359 586.699L784.336 508.582L1110.42 179.594Z" fill="#E97A41"/>
<path d="M1110.42 179.596L932.28 242.899L843.556 349.294L784.337 508.583L1110.42 179.596Z" fill="#DC5915"/>
<path d="M456.841 578.306L336.084 386.242L541.007 289.52L681.026 341.277L456.841 578.306Z" fill="#F1F4F8"/>
<path d="M456.285 578.037L580.677 530.526L641.397 454.147L680.471 341.009L456.285 578.037Z" fill="#E1E6ED"/>
<path d="M186.906 362.566L60.811 565.673L-125.476 416.295L-141.156 259.775L186.906 362.566Z" fill="#F1F4F8"/>
<path d="M186.902 362.568L84.4312 266.717L-15.9591 244.505L-141.16 259.777L186.902 362.568Z" fill="#E1E6ED"/>
<path d="M1512.68 574.268L1334.99 393.544L1535.5 239.009L1700.67 262.019L1512.68 574.268Z" fill="#F1F4F8"/>
<path d="M1512.68 574.266L1637.07 492.684L1685.07 394.82L1700.66 262.016L1512.68 574.266Z" fill="#E1E6ED"/>
</g>
</svg>
