<svg xmlns="http://www.w3.org/2000/svg" viewBox="0 0 301 301"><defs><style>.cls-1{fill:#fff;}.cls-2{fill:#19d686;}.cls-3{isolation:isolate;}.cls-4{fill:#170a07;}.cls-5{fill:gray;}.cls-6{fill:#212020;}</style></defs><g id="Layer_2" data-name="Layer 2"><g id="Layer_1-2" data-name="Layer 1"><rect id="Rectangle_866" data-name="Rectangle 866" class="cls-1" width="301" height="301" rx="10"/><circle id="Ellipse_461" data-name="Ellipse 461" class="cls-2" cx="151" cy="56" r="13"/><path id="Icon_awesome-check" data-name="Icon awesome-check" class="cls-1" d="M148.64,61.16,144,56.55a.72.72,0,0,1,0-1l1-1a.72.72,0,0,1,1,0l3.11,3.11L155.8,51a.72.72,0,0,1,1,0l1,1a.72.72,0,0,1,0,1l-8.15,8.16A.71.71,0,0,1,148.64,61.16Z"/><g id="You_are_now_registered_for" data-name="You are now registered for" class="cls-3"><g class="cls-3"><path class="cls-4" d="M60.84,87.79l-3.93-7.06h2.55L62,85.54h.06l2.52-4.81h2.55l-3.93,7.06V92H60.84Z"/><path class="cls-4" d="M66.05,87.81h0c0-2.7,1.64-4.35,4.14-4.35s4.16,1.64,4.16,4.35h0c0,2.74-1.62,4.36-4.15,4.36S66.05,90.54,66.05,87.81Zm6,0h0c0-1.62-.73-2.56-1.84-2.56s-1.82.94-1.82,2.56h0c0,1.64.72,2.57,1.84,2.57S72,89.45,72,87.81Z"/><path class="cls-4" d="M75.48,89V83.62h2.29v4.93c0,1.1.51,1.73,1.53,1.73A1.66,1.66,0,0,0,81,88.44V83.62h2.28V92H81V90.62h0a2.61,2.61,0,0,1-2.56,1.55C76.53,92.17,75.48,91,75.48,89Z"/><path class="cls-4" d="M87.59,89.6h0c0-1.53,1.18-2.42,3.25-2.55l2.07-.13V86.4c0-.74-.48-1.2-1.37-1.2s-1.37.39-1.48.93v.07H88v-.09c.12-1.55,1.45-2.66,3.66-2.66s3.56,1.12,3.56,2.81V92H92.91V90.75h0a2.73,2.73,0,0,1-2.47,1.38A2.56,2.56,0,0,1,87.59,89.6Zm3.55.87a1.62,1.62,0,0,0,1.77-1.53v-.6l-1.72.11c-.89,0-1.35.42-1.35,1h0C89.84,90.1,90.35,90.47,91.14,90.47Z"/><path class="cls-4" d="M96.66,83.62h2.25v1.43h0a1.92,1.92,0,0,1,2-1.6,2.37,2.37,0,0,1,.65.09v2a2.27,2.27,0,0,0-.82-.13,1.67,1.67,0,0,0-1.79,1.86V92H96.66Z"/><path class="cls-4" d="M101.91,87.83h0c0-2.66,1.57-4.37,4-4.37s4,1.67,4,4.2v.7h-5.76c0,1.34.75,2.12,1.91,2.12a1.68,1.68,0,0,0,1.67-1l0,0h2.09l0,.08c-.26,1.24-1.42,2.65-3.81,2.65C103.46,92.17,101.91,90.51,101.91,87.83Zm2.27-.92h3.55A1.74,1.74,0,0,0,106,85.16,1.79,1.79,0,0,0,104.18,86.91Z"/><path class="cls-4" d="M114.26,83.62h2.28V85h0a2.59,2.59,0,0,1,2.55-1.55c1.84,0,2.89,1.18,2.89,3.14V92h-2.28V87.06c0-1.09-.52-1.72-1.54-1.72a1.66,1.66,0,0,0-1.67,1.85V92h-2.28Z"/><path class="cls-4" d="M123.17,87.81h0c0-2.7,1.64-4.35,4.14-4.35s4.16,1.64,4.16,4.35h0c0,2.74-1.62,4.36-4.15,4.36S123.17,90.54,123.17,87.81Zm6,0h0c0-1.62-.73-2.56-1.84-2.56s-1.82.94-1.82,2.56h0c0,1.64.71,2.57,1.84,2.57S129.15,89.45,129.15,87.81Z"/><path class="cls-4" d="M132,83.62h2.3l1.26,6.22h.05l1.48-6.22h2.19l1.49,6.22h0l1.27-6.22h2.25L142.09,92h-2.43l-1.51-5.92h-.05L136.59,92h-2.4Z"/><path class="cls-4" d="M148.37,83.62h2.24v1.43h0a1.91,1.91,0,0,1,1.94-1.6,2.45,2.45,0,0,1,.66.09v2a2.33,2.33,0,0,0-.83-.13,1.66,1.66,0,0,0-1.78,1.86V92h-2.28Z"/><path class="cls-4" d="M153.61,87.83h0c0-2.66,1.57-4.37,4-4.37s4,1.67,4,4.2v.7h-5.76c0,1.34.75,2.12,1.91,2.12a1.68,1.68,0,0,0,1.67-1l0,0h2.09l0,.08a3.55,3.55,0,0,1-3.8,2.65C155.16,92.17,153.61,90.51,153.61,87.83Zm2.27-.92h3.56a1.74,1.74,0,0,0-1.77-1.75A1.79,1.79,0,0,0,155.88,86.91Z"/><path class="cls-4" d="M162.73,92.52v-.07h2.21l0,.06a1.82,1.82,0,0,0,1.74.77c1.18,0,1.81-.61,1.81-1.55V90.45h-.05a2.76,2.76,0,0,1-2.59,1.43c-2.09,0-3.39-1.56-3.39-4.16h0c0-2.67,1.31-4.26,3.43-4.26a2.72,2.72,0,0,1,2.55,1.6h.05V83.62h2.28v8.15c0,1.86-1.57,3.14-4.09,3.14C164.41,94.91,163,93.87,162.73,92.52Zm5.79-4.75h0c0-1.5-.74-2.43-1.85-2.43s-1.86.93-1.86,2.43h0c0,1.51.72,2.44,1.86,2.44S168.52,89.27,168.52,87.77Z"/><path class="cls-4" d="M172.26,81.36a1.22,1.22,0,1,1,1.22,1.19A1.2,1.2,0,0,1,172.26,81.36Zm.08,2.26h2.28V92h-2.28Z"/><path class="cls-4" d="M175.8,89.52v-.07H178v.07c.15.65.64,1,1.56,1s1.38-.33,1.38-.87h0c0-.44-.28-.7-1.1-.88l-1.43-.3c-1.62-.34-2.44-1.15-2.44-2.4h0c0-1.6,1.37-2.63,3.51-2.63S183,84.63,183,86.1v.08h-2.1v-.06a1.27,1.27,0,0,0-1.41-1.06c-.79,0-1.28.35-1.28.89h0c0,.43.29.71,1.13.89l1.42.31c1.75.36,2.47,1,2.47,2.29h0c0,1.64-1.51,2.72-3.66,2.72C177.27,92.17,176,91.1,175.8,89.52Z"/><path class="cls-4" d="M185,89.66V85.34H183.8V83.62H185v-2h2.3v2h1.53v1.72h-1.53v4.07c0,.78.35,1,1,1a3.11,3.11,0,0,0,.49,0v1.68a8.5,8.5,0,0,1-1.1.08C185.84,92.17,185,91.45,185,89.66Z"/><path class="cls-4" d="M189.64,87.83h0c0-2.66,1.57-4.37,4-4.37s4,1.67,4,4.2v.7h-5.77c0,1.34.75,2.12,1.91,2.12a1.71,1.71,0,0,0,1.68-1v0h2.1l0,.08a3.55,3.55,0,0,1-3.8,2.65C191.19,92.17,189.64,90.51,189.64,87.83Zm2.27-.92h3.56a1.74,1.74,0,0,0-1.77-1.75A1.79,1.79,0,0,0,191.91,86.91Z"/><path class="cls-4" d="M198.83,83.62h2.24v1.43h.05a1.91,1.91,0,0,1,1.94-1.6,2.45,2.45,0,0,1,.66.09v2a2.33,2.33,0,0,0-.83-.13,1.66,1.66,0,0,0-1.78,1.86V92h-2.28Z"/><path class="cls-4" d="M204.07,87.83h0c0-2.66,1.57-4.37,4-4.37s4,1.67,4,4.2v.7h-5.77c0,1.34.75,2.12,1.91,2.12a1.71,1.71,0,0,0,1.68-1v0H212l0,.08a3.55,3.55,0,0,1-3.8,2.65C205.62,92.17,204.07,90.51,204.07,87.83Zm2.27-.92h3.56a1.74,1.74,0,0,0-1.77-1.75A1.79,1.79,0,0,0,206.34,86.91Z"/><path class="cls-4" d="M213,87.81h0c0-2.72,1.3-4.35,3.41-4.35a2.71,2.71,0,0,1,2.58,1.63h0V80.73h2.29V92H219V90.57h0a2.7,2.7,0,0,1-2.58,1.6C214.25,92.17,213,90.53,213,87.81Zm6,0h0c0-1.5-.76-2.46-1.87-2.46s-1.85.93-1.85,2.46h0c0,1.53.71,2.47,1.85,2.47S219,89.33,219,87.81Z"/><path class="cls-4" d="M226.56,85.34h-1.14V83.62h1.14V83c0-1.64.78-2.4,2.76-2.4a6.06,6.06,0,0,1,1.15.1v1.51a2.69,2.69,0,0,0-.59,0c-.76,0-1.09.32-1.09.92v.58h1.66v1.72h-1.61V92h-2.28Z"/><path class="cls-4" d="M230.76,87.81h0c0-2.7,1.64-4.35,4.14-4.35s4.15,1.64,4.15,4.35h0c0,2.74-1.61,4.36-4.14,4.36S230.76,90.54,230.76,87.81Zm6,0h0c0-1.62-.72-2.56-1.83-2.56s-1.82.94-1.82,2.56h0c0,1.64.71,2.57,1.83,2.57S236.73,89.45,236.73,87.81Z"/><path class="cls-4" d="M240.23,83.62h2.24v1.43h.05a1.91,1.91,0,0,1,1.94-1.6,2.51,2.51,0,0,1,.66.09v2a2.33,2.33,0,0,0-.83-.13,1.66,1.66,0,0,0-1.78,1.86V92h-2.28Z"/></g></g><g id="APR_21_2021" data-name="APR 21 2021" class="cls-3"><g class="cls-3"><path class="cls-5" d="M122.35,169.14H118.7L118,171h-1.15l3-8.31h1.26l3,8.31H123ZM120.53,164,119,168.25h3Z"/><path class="cls-5" d="M128.19,167.51h-1.6V171H125.5v-8.36h2.69c2,0,2.89,1.08,2.89,2.45S130.27,167.51,128.19,167.51Zm0-.9c1.25,0,1.78-.59,1.78-1.52s-.53-1.55-1.78-1.55h-1.6v3.07Z"/><path class="cls-5" d="M135.14,162.64c2,0,2.9,1.09,2.9,2.46a2.35,2.35,0,0,1-2,2.4l2.1,3.5h-1.3l-2-3.42h-1.32V171h-1.09v-8.36Zm0,.9h-1.61v3.17h1.61c1.24,0,1.78-.67,1.78-1.61S136.39,163.54,135.14,163.54Z"/><path class="cls-5" d="M142.63,170.12c2.28-1.83,4.44-3.56,4.44-5.33a1.47,1.47,0,0,0-1.6-1.68,1.72,1.72,0,0,0-1.75,1.87h-1.05a2.65,2.65,0,0,1,2.79-2.81,2.44,2.44,0,0,1,2.69,2.57c0,2.16-2.33,4-3.88,5.25h4.13v.91h-5.77Z"/><path class="cls-5" d="M150.53,163.32h-1.15v-1h2.25V171h-1.1Z"/><path class="cls-5" d="M153.61,169.49h1.2l-1.34,3.23h-.74Z"/><path class="cls-5" d="M159,170.12c2.28-1.83,4.44-3.56,4.44-5.33a1.47,1.47,0,0,0-1.6-1.68A1.72,1.72,0,0,0,160,165h-1a2.65,2.65,0,0,1,2.79-2.81,2.44,2.44,0,0,1,2.69,2.57c0,2.16-2.33,4-3.88,5.25h4.13v.91H159Z"/><path class="cls-5" d="M169,162.2c2.38,0,3,1.89,3,4.37s-.63,4.43-3,4.43-3-1.91-3-4.43S166.61,162.2,169,162.2Zm0,1c-1.72,0-1.95,1.59-1.95,3.38S167.29,170,169,170s1.93-1.56,1.93-3.44S170.71,163.19,169,163.19Z"/><path class="cls-5" d="M173.39,170.12c2.28-1.83,4.43-3.56,4.43-5.33,0-1-.42-1.68-1.59-1.68a1.71,1.71,0,0,0-1.75,1.87h-1.06a2.66,2.66,0,0,1,2.8-2.81,2.44,2.44,0,0,1,2.68,2.57c0,2.16-2.32,4-3.87,5.25h4.13v.91h-5.77Z"/><path class="cls-5" d="M181.28,163.32h-1.15v-1h2.26V171h-1.11Z"/></g></g><g id="_SCHOOL_CONCERT_" data-name=" SCHOOL CONCERT " class="cls-3"><g class="cls-3"><path class="cls-4" d="M43.48,130.55l-1.15,5.9H38.48l2.47-5.9Zm5,0-1.14,5.9H43.5l2.46-5.9Z"/><path class="cls-4" d="M56.54,146.15c-3.32,0-5.91-1.65-6-4.77h4a1.77,1.77,0,0,0,1.91,1.76c1.1,0,1.81-.55,1.81-1.45,0-2.86-7.72-1.32-7.68-6.8,0-2.93,2.4-4.56,5.63-4.56S61.82,132,62,135H57.91a1.67,1.67,0,0,0-1.78-1.6,1.37,1.37,0,0,0-1.59,1.41c0,2.68,7.64,1.47,7.64,6.64C62.18,144,60.15,146.15,56.54,146.15Z"/><path class="cls-4" d="M71.61,130.38a7.17,7.17,0,0,1,7.33,5.41H74.8a3.39,3.39,0,0,0-3.23-2c-2.31,0-3.89,1.72-3.89,4.44s1.58,4.45,3.89,4.45a3.39,3.39,0,0,0,3.23-2h4.14a7.16,7.16,0,0,1-7.33,5.39,7.87,7.87,0,0,1,0-15.73Z"/><path class="cls-4" d="M90.86,139.64H85V146H81.25V130.55H85v6h5.85v-6h3.77V146H90.86Z"/><path class="cls-4" d="M104.64,146.15a7.91,7.91,0,1,1,7.89-7.92A7.77,7.77,0,0,1,104.64,146.15Zm0-3.43c2.46,0,4.07-1.78,4.07-4.49s-1.61-4.49-4.07-4.49-4.1,1.74-4.1,4.49S102.13,142.72,104.64,142.72Z"/><path class="cls-4" d="M121.93,146.15a7.91,7.91,0,1,1,7.9-7.92A7.77,7.77,0,0,1,121.93,146.15Zm0-3.43c2.46,0,4.07-1.78,4.07-4.49s-1.61-4.49-4.07-4.49-4.09,1.74-4.09,4.49S119.42,142.72,121.93,142.72Z"/><path class="cls-4" d="M135.68,130.55V143.1h4.93V146h-8.7V130.55Z"/><path class="cls-4" d="M154.2,130.38a7.17,7.17,0,0,1,7.33,5.41h-4.14a3.4,3.4,0,0,0-3.23-2c-2.31,0-3.9,1.72-3.9,4.44s1.59,4.45,3.9,4.45a3.4,3.4,0,0,0,3.23-2h4.14a7.16,7.16,0,0,1-7.33,5.39,7.87,7.87,0,0,1,0-15.73Z"/><path class="cls-4" d="M171.14,146.15a7.91,7.91,0,1,1,7.9-7.92A7.76,7.76,0,0,1,171.14,146.15Zm0-3.43c2.47,0,4.07-1.78,4.07-4.49s-1.6-4.49-4.07-4.49-4.09,1.74-4.09,4.49S168.63,142.72,171.14,142.72Z"/><path class="cls-4" d="M195,130.55V146h-3.77l-6.29-9.53V146h-3.76V130.55h3.76l6.29,9.57v-9.57Z"/><path class="cls-4" d="M204.8,130.38a7.17,7.17,0,0,1,7.33,5.41H208a3.4,3.4,0,0,0-3.23-2c-2.31,0-3.9,1.72-3.9,4.44s1.59,4.45,3.9,4.45a3.4,3.4,0,0,0,3.23-2h4.14a7.16,7.16,0,0,1-7.33,5.39,7.87,7.87,0,0,1,0-15.73Z"/><path class="cls-4" d="M223.9,133.57h-5.7v3.12h5v2.91h-5V143h5.7v3h-9.46V130.55h9.46Z"/><path class="cls-4" d="M232.65,130.55c3.79,0,5.68,2.18,5.68,4.87a4.5,4.5,0,0,1-3.43,4.46l3.56,6.12h-4.25L231,140.17h-.9V146h-3.76V130.55Zm-.22,3.13H230.1v3.83h2.33c1.41,0,2.07-.73,2.07-1.94S233.84,133.68,232.43,133.68Z"/><path class="cls-4" d="M239.85,130.55h11.94v3H247.7V146h-3.76V133.57h-4.09Z"/><path class="cls-4" d="M253.51,136.45l1.14-5.9h3.85l-2.46,5.9Zm5,0,1.15-5.9h3.85l-2.47,5.9Z"/></g></g><g id="Group_564" data-name="Group 564"><rect id="Rectangle_1411" data-name="Rectangle 1411" class="cls-6" x="27" y="199" width="5" height="54"/><rect id="Rectangle_1412" data-name="Rectangle 1412" class="cls-6" x="35" y="199" width="1" height="54"/><rect id="Rectangle_1413" data-name="Rectangle 1413" class="cls-6" x="37" y="199" width="1" height="54"/><rect id="Rectangle_1414" data-name="Rectangle 1414" class="cls-6" x="39" y="199" width="2" height="54"/><rect id="Rectangle_1415" data-name="Rectangle 1415" class="cls-6" x="42" y="199" width="3" height="54"/><rect id="Rectangle_1416" data-name="Rectangle 1416" class="cls-6" x="47" y="199" width="5" height="54"/><rect id="Rectangle_1417" data-name="Rectangle 1417" class="cls-6" x="54" y="199" width="1" height="54"/><rect id="Rectangle_1418" data-name="Rectangle 1418" class="cls-6" x="56" y="199" width="1" height="54"/><rect id="Rectangle_1419" data-name="Rectangle 1419" class="cls-6" x="58" y="199" width="1" height="54"/><rect id="Rectangle_1420" data-name="Rectangle 1420" class="cls-6" x="60" y="199" width="2" height="54"/><rect id="Rectangle_1421" data-name="Rectangle 1421" class="cls-6" x="63" y="199" width="1" height="54"/><rect id="Rectangle_1422" data-name="Rectangle 1422" class="cls-6" x="65" y="199" width="1" height="54"/><rect id="Rectangle_1423" data-name="Rectangle 1423" class="cls-6" x="67" y="199" width="7" height="54"/><rect id="Rectangle_1424" data-name="Rectangle 1424" class="cls-6" x="76" y="199" width="1" height="54"/><rect id="Rectangle_1425" data-name="Rectangle 1425" class="cls-6" x="78" y="199" width="1" height="54"/><rect id="Rectangle_1426" data-name="Rectangle 1426" class="cls-6" x="81" y="199" width="1" height="54"/><rect id="Rectangle_1427" data-name="Rectangle 1427" class="cls-6" x="83" y="199" width="1" height="54"/><rect id="Rectangle_1428" data-name="Rectangle 1428" class="cls-6" x="85" y="199" width="5" height="54"/><rect id="Rectangle_1432" data-name="Rectangle 1432" class="cls-6" x="92" y="199" width="1" height="54"/><rect id="Rectangle_1433" data-name="Rectangle 1433" class="cls-6" x="94" y="199" width="1" height="54"/><rect id="Rectangle_1434" data-name="Rectangle 1434" class="cls-6" x="97" y="199" width="1" height="54"/><rect id="Rectangle_1435" data-name="Rectangle 1435" class="cls-6" x="99" y="199" width="1" height="54"/><rect id="Rectangle_1436" data-name="Rectangle 1436" class="cls-6" x="101" y="199" width="2" height="54"/><rect id="Rectangle_1437" data-name="Rectangle 1437" class="cls-6" x="104" y="199" width="1" height="54"/><rect id="Rectangle_1438" data-name="Rectangle 1438" class="cls-6" x="106" y="199" width="3" height="54"/><rect id="Rectangle_1440" data-name="Rectangle 1440" class="cls-6" x="111" y="199" width="1" height="54"/><rect id="Rectangle_1441" data-name="Rectangle 1441" class="cls-6" x="113" y="199" width="1" height="54"/><rect id="Rectangle_1442" data-name="Rectangle 1442" class="cls-6" x="117" y="199" width="3" height="54"/><rect id="Rectangle_1443" data-name="Rectangle 1443" class="cls-6" x="123" y="199" width="1" height="54"/><rect id="Rectangle_1444" data-name="Rectangle 1444" class="cls-6" x="125" y="199" width="1" height="54"/><rect id="Rectangle_1445" data-name="Rectangle 1445" class="cls-6" x="128" y="199" width="1" height="54"/><rect id="Rectangle_1446" data-name="Rectangle 1446" class="cls-6" x="130" y="199" width="1" height="54"/><rect id="Rectangle_1447" data-name="Rectangle 1447" class="cls-6" x="132" y="199" width="2" height="54"/><rect id="Rectangle_1448" data-name="Rectangle 1448" class="cls-6" x="135" y="199" width="1" height="54"/><rect id="Rectangle_1449" data-name="Rectangle 1449" class="cls-6" x="137" y="199" width="3" height="54"/><rect id="Rectangle_1450" data-name="Rectangle 1450" class="cls-6" x="142" y="199" width="1" height="54"/><rect id="Rectangle_1451" data-name="Rectangle 1451" class="cls-6" x="144" y="199" width="1" height="54"/><rect id="Rectangle_1452" data-name="Rectangle 1452" class="cls-6" x="148" y="199" width="5" height="54"/><rect id="Rectangle_1453" data-name="Rectangle 1453" class="cls-6" x="155" y="199" width="1" height="54"/><rect id="Rectangle_1454" data-name="Rectangle 1454" class="cls-6" x="157" y="199" width="1" height="54"/><rect id="Rectangle_1455" data-name="Rectangle 1455" class="cls-6" x="160" y="199" width="1" height="54"/><rect id="Rectangle_1456" data-name="Rectangle 1456" class="cls-6" x="162" y="199" width="1" height="54"/><rect id="Rectangle_1457" data-name="Rectangle 1457" class="cls-6" x="164" y="199" width="2" height="54"/><rect id="Rectangle_1458" data-name="Rectangle 1458" class="cls-6" x="167" y="199" width="1" height="54"/><rect id="Rectangle_1459" data-name="Rectangle 1459" class="cls-6" x="169" y="199" width="1" height="54"/><rect id="Rectangle_1460" data-name="Rectangle 1460" class="cls-6" x="172" y="199" width="1" height="54"/><rect id="Rectangle_1461" data-name="Rectangle 1461" class="cls-6" x="174" y="199" width="1" height="54"/><rect id="Rectangle_1462" data-name="Rectangle 1462" class="cls-6" x="178" y="199" width="5" height="54"/><rect id="Rectangle_1463" data-name="Rectangle 1463" class="cls-6" x="185" y="199" width="1" height="54"/><rect id="Rectangle_1464" data-name="Rectangle 1464" class="cls-6" x="187" y="199" width="1" height="54"/><rect id="Rectangle_1465" data-name="Rectangle 1465" class="cls-6" x="190" y="199" width="1" height="54"/><rect id="Rectangle_1466" data-name="Rectangle 1466" class="cls-6" x="192" y="199" width="1" height="54"/><rect id="Rectangle_1467" data-name="Rectangle 1467" class="cls-6" x="194" y="199" width="2" height="54"/><rect id="Rectangle_1468" data-name="Rectangle 1468" class="cls-6" x="197" y="199" width="1" height="54"/><rect id="Rectangle_1469" data-name="Rectangle 1469" class="cls-6" x="199" y="199" width="1" height="54"/><rect id="Rectangle_1470" data-name="Rectangle 1470" class="cls-6" x="202" y="199" width="1" height="54"/><rect id="Rectangle_1471" data-name="Rectangle 1471" class="cls-6" x="204" y="199" width="1" height="54"/><rect id="Rectangle_1473" data-name="Rectangle 1473" class="cls-6" x="208" y="199" width="1" height="54"/><rect id="Rectangle_1474" data-name="Rectangle 1474" class="cls-6" x="210" y="199" width="1" height="54"/><rect id="Rectangle_1475" data-name="Rectangle 1475" class="cls-6" x="213" y="199" width="1" height="54"/><rect id="Rectangle_1476" data-name="Rectangle 1476" class="cls-6" x="215" y="199" width="1" height="54"/><rect id="Rectangle_1477" data-name="Rectangle 1477" class="cls-6" x="217" y="199" width="2" height="54"/><rect id="Rectangle_1478" data-name="Rectangle 1478" class="cls-6" x="220" y="199" width="1" height="54"/><rect id="Rectangle_1479" data-name="Rectangle 1479" class="cls-6" x="222" y="199" width="1" height="54"/><rect id="Rectangle_1480" data-name="Rectangle 1480" class="cls-6" x="225" y="199" width="1" height="54"/><rect id="Rectangle_1481" data-name="Rectangle 1481" class="cls-6" x="227" y="199" width="1" height="54"/><rect id="Rectangle_1483" data-name="Rectangle 1483" class="cls-6" x="231" y="199" width="1" height="54"/><rect id="Rectangle_1484" data-name="Rectangle 1484" class="cls-6" x="233" y="199" width="1" height="54"/><rect id="Rectangle_1485" data-name="Rectangle 1485" class="cls-6" x="236" y="199" width="1" height="54"/><rect id="Rectangle_1486" data-name="Rectangle 1486" class="cls-6" x="238" y="199" width="1" height="54"/><rect id="Rectangle_1487" data-name="Rectangle 1487" class="cls-6" x="240" y="199" width="2" height="54"/><rect id="Rectangle_1488" data-name="Rectangle 1488" class="cls-6" x="243" y="199" width="1" height="54"/><rect id="Rectangle_1489" data-name="Rectangle 1489" class="cls-6" x="245" y="199" width="1" height="54"/><rect id="Rectangle_1490" data-name="Rectangle 1490" class="cls-6" x="248" y="199" width="1" height="54"/><rect id="Rectangle_1491" data-name="Rectangle 1491" class="cls-6" x="250" y="199" width="1" height="54"/><rect id="Rectangle_1492" data-name="Rectangle 1492" class="cls-6" x="253" y="199" width="1" height="54"/><rect id="Rectangle_1493" data-name="Rectangle 1493" class="cls-6" x="256" y="199" width="1" height="54"/><rect id="Rectangle_1494" data-name="Rectangle 1494" class="cls-6" x="258" y="199" width="1" height="54"/><rect id="Rectangle_1495" data-name="Rectangle 1495" class="cls-6" x="262" y="199" width="5" height="54"/><rect id="Rectangle_1496" data-name="Rectangle 1496" class="cls-6" x="269" y="199" width="1" height="54"/><rect id="Rectangle_1497" data-name="Rectangle 1497" class="cls-6" x="271" y="199" width="1" height="54"/><rect id="Rectangle_1498" data-name="Rectangle 1498" class="cls-6" x="274" y="199" width="1" height="54"/></g></g></g></svg>