<svg id="Layer_1" data-name="Layer 1" xmlns="http://www.w3.org/2000/svg" viewBox="0 0 133.77 28"><defs><style>.cls-1{isolation:isolate;}.cls-2{fill:#fff;}.cls-3{fill:#1ae390;}</style></defs><g id="Group_591" data-name="Group 591"><g id="dongari" class="cls-1"><g class="cls-1"><path class="cls-2" d="M51.81,5.19V23H48.24V21.51a5,5,0,0,1-4,1.68,6.28,6.28,0,0,1-6.45-6.65A6.28,6.28,0,0,1,44.2,9.89a5,5,0,0,1,3.87,1.57V5.19ZM48.14,16.54a3.31,3.31,0,1,0-6.6,0,3.31,3.31,0,1,0,6.6,0Z"/><path class="cls-2" d="M54.31,16.54c0-3.88,3-6.65,7.1-6.65s7.08,2.77,7.08,6.65-3,6.65-7.08,6.65S54.31,20.43,54.31,16.54Zm10.39,0a3.31,3.31,0,1,0-6.6,0,3.31,3.31,0,1,0,6.6,0Z"/><path class="cls-2" d="M84.19,15.61V23H80.44V16.18c0-2.08-1-3-2.61-3s-3.1,1.11-3.1,3.49V23H71V10.09h3.57V11.6a5.68,5.68,0,0,1,4.28-1.71C81.88,9.89,84.19,11.67,84.19,15.61Z"/><path class="cls-2" d="M101,10.09V20.84c0,4.8-2.6,7-7.25,7a10.61,10.61,0,0,1-6.34-1.78l1.49-2.69a7.69,7.69,0,0,0,4.56,1.47c2.64,0,3.79-1.2,3.79-3.53v-.55a5.31,5.31,0,0,1-4.08,1.61,6.15,6.15,0,0,1-6.45-6.24,6.15,6.15,0,0,1,6.45-6.25,5.2,5.2,0,0,1,4.27,1.85V10.09Zm-3.7,6.05A3.4,3.4,0,1,0,94,19.3,3.13,3.13,0,0,0,97.34,16.14Z"/><path class="cls-2" d="M115.94,15.63V23h-3.5V21.39c-.7,1.18-2,1.8-3.94,1.8-3,0-4.82-1.68-4.82-3.91s1.6-3.87,5.54-3.87h3c0-1.6-1-2.54-3-2.54a6.24,6.24,0,0,0-3.72,1.2l-1.34-2.61a9.88,9.88,0,0,1,5.56-1.57C113.66,9.89,115.94,11.72,115.94,15.63Zm-3.74,3.29V17.6h-2.57c-1.75,0-2.31.65-2.31,1.51s.8,1.56,2.12,1.56A2.77,2.77,0,0,0,112.2,18.92Z"/><path class="cls-2" d="M127.34,9.89v3.46c-.31,0-.55,0-.84,0-2.06,0-3.43,1.13-3.43,3.6V23h-3.75V10.09h3.58v1.7A5.21,5.21,0,0,1,127.34,9.89Z"/><path class="cls-2" d="M129.12,6.2a2.13,2.13,0,0,1,2.32-2.09,2.1,2.1,0,0,1,2.33,2,2.33,2.33,0,0,1-4.65.07Zm.45,3.89h3.75V23h-3.75Z"/></g></g><rect id="Rectangle_166" data-name="Rectangle 166" class="cls-3" width="28" height="28" rx="6"/><circle id="Ellipse_72" data-name="Ellipse 72" class="cls-2" cx="8" cy="9" r="4"/><path id="Rectangle_167" data-name="Rectangle 167" class="cls-2" d="M6,16H22a3,3,0,0,1,3,3h0a3,3,0,0,1-3,3H6a3,3,0,0,1-3-3H3A3,3,0,0,1,6,16Z"/></g></svg>